<svg width="143" height="150" viewBox="0 0 143 150" fill="none" xmlns="http://www.w3.org/2000/svg">
<path d="M123 85C129.5 75.5 138.897 56.5 138.5 41.9995C137.5 5.49935 89.5001 3.5 70.5001 3.5C51.5001 3.5 3.5 5.5 3.50012 44C3.50023 77.5002 44.5001 146 70.5001 146C83.5 146 110.5 108.5 110.5 108.5" stroke="#161616" stroke-width="7" stroke-linecap="square" stroke-linejoin="bevel"/>
<path d="M108.857 106.64L103.662 103.037C93.9528 96.4752 88.7042 96.1919 84.8179 97.9174C60.1715 81.26 25.2906 62.0376 25.2906 62.0376L33.5986 52.9645C34.9111 49.6809 37.0213 45.4856 39.6558 44.0021C39.6765 40.7521 44.0778 36.6547 45.7131 35.0398L50.2766 25.068C65.0352 37.0373 81.3718 49.8919 106.018 66.5492C106.371 70.0518 107.199 74.7772 117.795 82.125C122.99 85.7274 120.999 84.3815 122.99 85.7274" stroke="#161616" stroke-width="6" stroke-linecap="square"/>
<path d="M36.3105 78.7339L41.3377 74.5154L44.5775 76.161L42.5378 82.3986L36.3105 78.7339Z" stroke="#161616" stroke-width="6" stroke-linecap="square"/>
<path d="M52.1261 88.335L57.1532 84.1165L60.393 85.7621L58.3534 91.9997L52.1261 88.335Z" stroke="#161616" stroke-width="6" stroke-linecap="square"/>
<path d="M67.8102 98.9355L72.8373 94.7171L76.0771 96.3627L74.0375 102.6L67.8102 98.9355Z" stroke="#161616" stroke-width="6" stroke-linecap="square"/>
<path d="M105.971 56.793L100.444 60.3319L97.4424 58.2843L100.265 52.3598L105.971 56.793Z" stroke="#161616" stroke-width="6" stroke-linecap="square"/>
<path d="M92.0435 45.2036L86.5168 48.7425L83.5148 46.695L86.3376 40.7705L92.0435 45.2036Z" stroke="#161616" stroke-width="6" stroke-linecap="square"/>
<path d="M76.8641 33.8569L71.3375 37.3958L68.3355 35.3483L71.1583 29.4238L76.8641 33.8569Z" stroke="#161616" stroke-width="6" stroke-linecap="square"/>
</svg>
